<?xml version="1.0" standalone="no"?>
<!DOCTYPE svg PUBLIC "-//W3C//DTD SVG 20010904//EN"
 "http://www.w3.org/TR/2001/REC-SVG-20010904/DTD/svg10.dtd">
<svg version="1.0" xmlns="http://www.w3.org/2000/svg"
 width="700.000000pt" height="700.000000pt" viewBox="0 0 700.000000 700.000000"
 preserveAspectRatio="xMidYMid meet">
<metadata>
Created by potrace 1.11, written by Peter Selinger 2001-2013
</metadata>
<g transform="translate(0.000000,700.000000) scale(0.100000,-0.100000)"
fill="#000000" stroke="none">
<path d="M655 6984 c-316 -67 -571 -326 -640 -650 -22 -104 -22 -5564 0 -5668
70 -331 320 -581 651 -651 104 -22 5564 -22 5668 0 328 70 581 322 651 650 22
105 22 5564 0 5669 -70 331 -320 581 -651 651 -105 22 -5574 21 -5679 -1z
m5670 -149 c250 -64 443 -256 506 -503 19 -73 19 -140 19 -2832 0 -2692 0
-2759 -19 -2832 -63 -244 -254 -436 -497 -498 -76 -20 -123 -20 -2834 -20
-2692 0 -2759 0 -2832 19 -244 63 -436 254 -498 497 -20 76 -20 123 -20 2834
0 2692 0 2759 19 2832 52 201 182 361 366 449 153 74 -108 68 2960 68 2453 1
2778 -1 2830 -14z"/>
<path d="M2833 6449 c-48 -23 -89 -67 -110 -116 -20 -48 -17 -137 7 -182 28
-55 466 -690 504 -729 41 -44 58 -52 354 -167 139 -54 249 -102 245 -106 -5
-3 -208 -109 -453 -234 -245 -125 -469 -246 -499 -269 -69 -52 -135 -148 -161
-234 -20 -64 -21 -89 -18 -484 l3 -415 -419 -189 c-231 -104 -439 -202 -462
-217 -143 -94 -164 -304 -45 -439 58 -66 182 -107 268 -87 25 5 286 118 580
251 568 256 599 274 646 362 21 39 22 57 27 308 l5 267 348 -310 c214 -192
347 -318 347 -329 0 -10 -30 -261 -66 -557 -39 -325 -63 -555 -60 -581 13 -97
74 -185 160 -230 43 -22 64 -27 131 -27 67 0 88 5 131 27 28 15 65 43 82 63
70 78 68 70 153 754 43 350 79 657 79 682 0 57 -22 121 -56 167 -15 18 -173
164 -353 324 -179 159 -327 293 -329 297 -2 7 959 481 977 481 6 0 223 -195
481 -432 301 -277 485 -440 512 -452 117 -54 255 3 306 124 22 54 12 148 -21
199 -15 22 -315 305 -667 628 l-641 588 63 7 c173 18 326 134 389 296 31 78
37 218 14 299 -34 118 -128 234 -234 287 -266 135 -571 9 -667 -276 -35 -105
-18 -276 37 -364 l21 -34 -109 38 c-59 21 -252 90 -429 153 l-320 114 -190
274 c-308 448 -300 437 -357 466 -65 32 -144 34 -204 4z"/>
<path d="M683 2812 c-12 -9 -27 -32 -34 -49 -9 -27 -8 -39 8 -70 17 -35 30
-43 203 -120 102 -45 189 -84 193 -85 4 -2 -80 -70 -187 -152 -206 -157 -223
-177 -213 -242 12 -72 71 -124 139 -124 26 0 148 46 385 146 191 81 355 149
364 151 9 3 156 -52 325 -122 825 -340 1640 -641 2594 -958 614 -205 1723
-557 1752 -557 47 0 74 61 48 110 -7 13 -64 36 -187 75 -1627 519 -3451 1205
-4961 1869 -348 153 -384 163 -429 128z"/>
</g>
</svg>
